# Blender 4.0.2
# www.blender.org
o Plane
v -0.500000 0.000000 0.000000
v 0.500000 0.000000 0.000000
v -0.500000 -0.000000 -1.000000
v 0.500000 -0.000000 -1.000000
v -0.500000 -0.000000 -0.750000
v -0.500000 -0.000000 -0.500000
v -0.500000 -0.000000 -0.250000
v -0.250000 0.000000 0.000000
v 0.000000 0.000000 0.000000
v 0.250000 0.000000 0.000000
v 0.500000 -0.000000 -0.250000
v 0.500000 -0.000000 -0.500000
v 0.500000 -0.000000 -0.750000
v 0.250000 -0.000000 -1.000000
v 0.000000 -0.000000 -1.000000
v -0.250000 -0.000000 -1.000000
v -0.250000 -0.000000 -0.250000
v 0.000000 -0.000000 -0.250000
v 0.250000 -0.000000 -0.250000
v -0.250000 -0.000000 -0.500000
v 0.000000 -0.000000 -0.500000
v 0.250000 -0.000000 -0.500000
v -0.250000 -0.000000 -0.750000
v 0.000000 -0.000000 -0.750000
v 0.250000 -0.000000 -0.750000
v -0.500000 -0.000000 -0.125000
v 0.500000 -0.000000 -0.125000
v -0.250000 -0.000000 -0.125000
v 0.000000 -0.000000 -0.125000
v 0.250000 -0.000000 -0.125000
v -0.500000 -0.000000 -0.375000
v 0.500000 -0.000000 -0.375000
v -0.250000 -0.000000 -0.375000
v 0.000000 -0.000000 -0.375000
v 0.250000 -0.000000 -0.375000
v -0.500000 -0.000000 -0.625000
v 0.500000 -0.000000 -0.625000
v -0.250000 -0.000000 -0.625000
v 0.000000 -0.000000 -0.625000
v 0.250000 -0.000000 -0.625000
v -0.500000 -0.000000 -0.875000
v 0.500000 -0.000000 -0.875000
v 0.250000 -0.000000 -0.875000
v 0.000000 -0.000000 -0.875000
v -0.250000 -0.000000 -0.875000
v -0.500000 -0.000000 -0.062500
v 0.500000 -0.000000 -0.062500
v -0.250000 -0.000000 -0.062500
v 0.000000 -0.000000 -0.062500
v 0.250000 -0.000000 -0.062500
v 0.500000 -0.000000 -0.187500
v -0.250000 -0.000000 -0.187500
v 0.000000 -0.000000 -0.187500
v 0.250000 -0.000000 -0.187500
v -0.500000 -0.000000 -0.187500
v -0.500000 -0.000000 -0.312500
v 0.500000 -0.000000 -0.312500
v -0.250000 -0.000000 -0.312500
v 0.000000 -0.000000 -0.312500
v 0.250000 -0.000000 -0.312500
v 0.500000 -0.000000 -0.437500
v -0.250000 -0.000000 -0.437500
v 0.000000 -0.000000 -0.437500
v 0.250000 -0.000000 -0.437500
v -0.500000 -0.000000 -0.437500
v -0.500000 -0.000000 -0.562500
v 0.500000 -0.000000 -0.562500
v -0.250000 -0.000000 -0.562500
v 0.000000 -0.000000 -0.562500
v 0.250000 -0.000000 -0.562500
v 0.500000 -0.000000 -0.687500
v -0.250000 -0.000000 -0.687500
v 0.000000 -0.000000 -0.687500
v 0.250000 -0.000000 -0.687500
v -0.500000 -0.000000 -0.687500
v 0.500000 -0.000000 -0.937500
v -0.500000 -0.000000 -0.937500
v 0.250000 -0.000000 -0.937500
v 0.000000 -0.000000 -0.937500
v -0.250000 -0.000000 -0.937500
v -0.500000 -0.000000 -0.812500
v 0.250000 -0.000000 -0.812500
v 0.000000 -0.000000 -0.812500
v -0.250000 -0.000000 -0.812500
v 0.500000 -0.000000 -0.812500
v 0.500000 0.250000 -0.000000
v 0.500000 0.250000 -1.000000
v 0.500000 0.250000 -0.250000
v 0.500000 0.250000 -0.500000
v 0.500000 0.250000 -0.750000
v 0.500000 0.250000 -0.125000
v 0.500000 0.250000 -0.375000
v 0.500000 0.250000 -0.625000
v 0.500000 0.250000 -0.875000
v 0.500000 0.250000 -0.062500
v 0.500000 0.250000 -0.187500
v 0.500000 0.250000 -0.312500
v 0.500000 0.250000 -0.437500
v 0.500000 0.250000 -0.562500
v 0.500000 0.250000 -0.687500
v 0.500000 0.250000 -0.937500
v 0.500000 0.250000 -0.812500
v -0.500000 0.250000 -0.000000
v -0.500000 0.250000 -1.000000
v -0.500000 0.250000 -0.750000
v -0.500000 0.250000 -0.500000
v -0.500000 0.250000 -0.250000
v -0.500000 0.250000 -0.125000
v -0.500000 0.250000 -0.375000
v -0.500000 0.250000 -0.625000
v -0.500000 0.250000 -0.875000
v -0.500000 0.250000 -0.062500
v -0.500000 0.250000 -0.187500
v -0.500000 0.250000 -0.312500
v -0.500000 0.250000 -0.437500
v -0.500000 0.250000 -0.562500
v -0.500000 0.250000 -0.687500
v -0.500000 0.250000 -0.937500
v -0.500000 0.250000 -0.812500
v -0.600000 0.250000 -0.000000
v -0.600000 0.250000 -1.000000
v -0.600000 0.250000 -0.750000
v -0.600000 0.250000 -0.500000
v -0.600000 0.250000 -0.250000
v -0.600000 0.250000 -0.125000
v -0.600000 0.250000 -0.375000
v -0.600000 0.250000 -0.625000
v -0.600000 0.250000 -0.875000
v -0.600000 0.250000 -0.062500
v -0.600000 0.250000 -0.187500
v -0.600000 0.250000 -0.312500
v -0.600000 0.250000 -0.437500
v -0.600000 0.250000 -0.562500
v -0.600000 0.250000 -0.687500
v -0.600000 0.250000 -0.937500
v -0.600000 0.250000 -0.812500
v -0.600000 0.000000 0.000000
v -0.600000 -0.000000 -1.000000
v -0.600000 -0.000000 -0.750000
v -0.600000 -0.000000 -0.500000
v -0.600000 -0.000000 -0.250000
v -0.600000 -0.000000 -0.125000
v -0.600000 -0.000000 -0.375000
v -0.600000 -0.000000 -0.625000
v -0.600000 -0.000000 -0.875000
v -0.600000 -0.000000 -0.062500
v -0.600000 -0.000000 -0.187500
v -0.600000 -0.000000 -0.312500
v -0.600000 -0.000000 -0.437500
v -0.600000 -0.000000 -0.562500
v -0.600000 -0.000000 -0.687500
v -0.600000 -0.000000 -0.937500
v -0.600000 -0.000000 -0.812500
v 0.600000 0.250000 -0.000000
v 0.600000 0.250000 -1.000000
v 0.600000 0.250000 -0.250000
v 0.600000 0.250000 -0.500000
v 0.600000 0.250000 -0.750000
v 0.600000 0.250000 -0.125000
v 0.600000 0.250000 -0.375000
v 0.600000 0.250000 -0.625000
v 0.600000 0.250000 -0.875000
v 0.600000 0.250000 -0.062500
v 0.600000 0.250000 -0.187500
v 0.600000 0.250000 -0.312500
v 0.600000 0.250000 -0.437500
v 0.600000 0.250000 -0.562500
v 0.600000 0.250000 -0.687500
v 0.600000 0.250000 -0.937500
v 0.600000 0.250000 -0.812500
v 0.600000 0.000000 0.000000
v 0.600000 -0.000000 -1.000000
v 0.600000 -0.000000 -0.250000
v 0.600000 -0.000000 -0.500000
v 0.600000 -0.000000 -0.750000
v 0.600000 -0.000000 -0.125000
v 0.600000 -0.000000 -0.375000
v 0.600000 -0.000000 -0.625000
v 0.600000 -0.000000 -0.875000
v 0.600000 -0.000000 -0.062500
v 0.600000 -0.000000 -0.187500
v 0.600000 -0.000000 -0.312500
v 0.600000 -0.000000 -0.437500
v 0.600000 -0.000000 -0.562500
v 0.600000 -0.000000 -0.687500
v 0.600000 -0.000000 -0.937500
v 0.600000 -0.000000 -0.812500
vn -0.0000 1.0000 -0.0000
vn -1.0000 -0.0000 -0.0000
vn 1.0000 -0.0000 -0.0000
vt 0.500000 0.437500
vt 0.250000 0.500000
vt 0.250000 0.437500
vt 0.750000 0.437500
vt 0.500000 0.500000
vt 0.500000 0.687500
vt 0.250000 0.750000
vt 0.250000 0.687500
vt 0.750000 0.687500
vt 0.500000 0.750000
vt 0.250000 0.187500
vt 0.000000 0.250000
vt 0.000000 0.187500
vt 0.500000 0.187500
vt 0.250000 0.250000
vt 0.750000 0.187500
vt 0.500000 0.250000
vt 1.000000 0.187500
vt 0.750000 0.250000
vt 1.000000 0.437500
vt 0.750000 0.500000
vt 1.000000 0.687500
vt 0.750000 0.750000
vt 1.000000 0.937500
vt 0.750000 1.000000
vt 0.750000 0.937500
vt 0.500000 1.000000
vt 0.500000 0.937500
vt 0.250000 1.000000
vt 0.250000 0.937500
vt 0.000000 0.937500
vt 0.000000 1.000000
vt 0.000000 0.750000
vt 0.000000 0.687500
vt 0.000000 0.500000
vt 0.000000 0.437500
vt 0.750000 0.062500
vt 1.000000 0.125000
vt 0.750000 0.125000
vt 0.500000 0.125000
vt 0.500000 0.062500
vt 0.250000 0.125000
vt 0.250000 0.062500
vt 0.000000 0.125000
vt 0.000000 0.062500
vt 0.250000 0.312500
vt 0.000000 0.375000
vt 0.000000 0.312500
vt 0.750000 0.312500
vt 1.000000 0.375000
vt 0.750000 0.375000
vt 0.500000 0.375000
vt 0.500000 0.312500
vt 0.250000 0.375000
vt 0.250000 0.562500
vt 0.000000 0.625000
vt 0.000000 0.562500
vt 1.000000 0.562500
vt 0.750000 0.625000
vt 0.750000 0.562500
vt 0.500000 0.625000
vt 0.500000 0.562500
vt 0.250000 0.625000
vt 0.250000 0.812500
vt 0.000000 0.875000
vt 0.000000 0.812500
vt 0.500000 0.812500
vt 0.250000 0.875000
vt 0.750000 0.812500
vt 0.500000 0.875000
vt 1.000000 0.812500
vt 0.750000 0.875000
vt 0.250000 0.000000
vt 0.000000 0.000000
vt 0.500000 0.000000
vt 0.750000 0.000000
vt 1.000000 0.062500
vt 1.000000 0.250000
vt 1.000000 0.500000
vt 1.000000 0.625000
vt 1.000000 0.875000
vt 1.000000 0.750000
vt 1.000000 0.000000
vt 1.000000 1.000000
vt 1.000000 0.312500
s 0
f 63/1/1 20/2/1 62/3/1
f 64/4/1 21/5/1 63/1/1
f 73/6/1 23/7/1 72/8/1
f 74/9/1 24/10/1 73/6/1
f 52/11/1 7/12/1 55/13/1
f 53/14/1 17/15/1 52/11/1
f 54/16/1 18/17/1 53/14/1
f 51/18/1 19/19/1 54/16/1
f 61/20/1 22/21/1 64/4/1
f 71/22/1 25/23/1 74/9/1
f 76/24/1 14/25/1 78/26/1
f 78/26/1 15/27/1 79/28/1
f 79/28/1 16/29/1 80/30/1
f 77/31/1 16/29/1 3/32/1
f 72/8/1 5/33/1 75/34/1
f 62/3/1 6/35/1 65/36/1
f 50/37/1 27/38/1 30/39/1
f 50/37/1 29/40/1 49/41/1
f 49/41/1 28/42/1 48/43/1
f 48/43/1 26/44/1 46/45/1
f 58/46/1 31/47/1 56/48/1
f 60/49/1 32/50/1 35/51/1
f 60/49/1 34/52/1 59/53/1
f 59/53/1 33/54/1 58/46/1
f 68/55/1 36/56/1 66/57/1
f 67/58/1 40/59/1 70/60/1
f 70/60/1 39/61/1 69/62/1
f 69/62/1 38/63/1 68/55/1
f 84/64/1 41/65/1 81/66/1
f 83/67/1 45/68/1 84/64/1
f 82/69/1 44/70/1 83/67/1
f 85/71/1 43/72/1 82/69/1
f 8/73/1 46/45/1 1/74/1
f 9/75/1 48/43/1 8/73/1
f 10/76/1 49/41/1 9/75/1
f 10/76/1 47/77/1 50/37/1
f 27/38/1 54/16/1 30/39/1
f 29/40/1 54/16/1 53/14/1
f 29/40/1 52/11/1 28/42/1
f 28/42/1 55/13/1 26/44/1
f 18/17/1 58/46/1 17/15/1
f 19/19/1 59/53/1 18/17/1
f 11/78/1 60/49/1 19/19/1
f 17/15/1 56/48/1 7/12/1
f 33/54/1 65/36/1 31/47/1
f 32/50/1 64/4/1 35/51/1
f 35/51/1 63/1/1 34/52/1
f 34/52/1 62/3/1 33/54/1
f 21/5/1 68/55/1 20/2/1
f 22/21/1 69/62/1 21/5/1
f 12/79/1 70/60/1 22/21/1
f 20/2/1 66/57/1 6/35/1
f 38/63/1 75/34/1 36/56/1
f 37/80/1 74/9/1 40/59/1
f 40/59/1 73/6/1 39/61/1
f 39/61/1 72/8/1 38/63/1
f 45/68/1 77/31/1 41/65/1
f 44/70/1 80/30/1 45/68/1
f 43/72/1 79/28/1 44/70/1
f 42/81/1 78/26/1 43/72/1
f 13/82/1 82/69/1 25/23/1
f 25/23/1 83/67/1 24/10/1
f 24/10/1 84/64/1 23/7/1
f 23/7/1 81/66/1 5/33/1
f 51/18/2 88/78/2 11/78/2
f 85/71/2 94/81/2 42/81/2
f 61/20/2 89/79/2 12/79/2
f 12/79/2 99/58/2 67/58/2
f 13/82/2 102/71/2 85/71/2
f 37/80/2 100/22/2 71/22/2
f 71/22/2 90/82/2 13/82/2
f 2/83/2 95/77/2 47/77/2
f 76/24/2 87/84/2 4/84/2
f 27/38/2 96/18/2 51/18/2
f 47/77/2 91/38/2 27/38/2
f 42/81/2 101/24/2 76/24/2
f 57/85/2 92/50/2 32/50/2
f 11/78/2 97/85/2 57/85/2
f 32/50/2 98/20/2 61/20/2
f 67/58/2 93/80/2 37/80/2
f 75/34/3 110/56/3 36/56/3
f 5/33/3 117/34/3 75/34/3
f 81/66/3 105/33/3 5/33/3
f 7/12/3 113/13/3 55/13/3
f 77/31/3 111/65/3 41/65/3
f 36/56/3 116/57/3 66/57/3
f 66/57/3 106/35/3 6/35/3
f 56/48/3 107/12/3 7/12/3
f 26/44/3 112/45/3 46/45/3
f 46/45/3 103/74/3 1/74/3
f 55/13/3 108/44/3 26/44/3
f 6/35/3 115/36/3 65/36/3
f 65/36/3 109/47/3 31/47/3
f 3/32/3 118/31/3 77/31/3
f 31/47/3 114/48/3 56/48/3
f 41/65/3 119/66/3 81/66/3
f 112/45/1 120/74/1 103/74/1
f 106/35/1 132/36/1 115/36/1
f 113/13/1 125/44/1 108/44/1
f 110/56/1 133/57/1 116/57/1
f 115/36/1 126/47/1 109/47/1
f 105/33/1 134/34/1 117/34/1
f 117/34/1 127/56/1 110/56/1
f 104/32/1 135/31/1 118/31/1
f 118/31/1 128/65/1 111/65/1
f 119/66/1 122/33/1 105/33/1
f 111/65/1 136/66/1 119/66/1
f 108/44/1 129/45/1 112/45/1
f 106/35/1 133/57/1 123/35/1
f 107/12/1 130/13/1 113/13/1
f 114/48/1 124/12/1 107/12/1
f 109/47/1 131/48/1 114/48/1
f 135/31/2 145/65/2 128/65/2
f 136/66/2 139/33/2 122/33/2
f 128/65/2 153/66/2 136/66/2
f 125/44/2 146/45/2 129/45/2
f 133/57/2 140/35/2 123/35/2
f 124/12/2 147/13/2 130/13/2
f 131/48/2 141/12/2 124/12/2
f 126/47/2 148/48/2 131/48/2
f 129/45/2 137/74/2 120/74/2
f 123/35/2 149/36/2 132/36/2
f 130/13/2 142/44/2 125/44/2
f 127/56/2 150/57/2 133/57/2
f 132/36/2 143/47/2 126/47/2
f 122/33/2 151/34/2 134/34/2
f 134/34/2 144/56/2 127/56/2
f 121/32/2 152/31/2 135/31/2
f 94/81/1 169/24/1 101/24/1
f 102/71/1 162/81/1 94/81/1
f 96/18/1 156/78/1 88/78/1
f 90/82/1 170/71/1 102/71/1
f 86/83/1 163/77/1 95/77/1
f 98/20/1 157/79/1 89/79/1
f 91/38/1 164/18/1 96/18/1
f 100/22/1 158/82/1 90/82/1
f 88/78/1 165/85/1 97/85/1
f 101/24/1 155/84/1 87/84/1
f 92/50/1 166/20/1 98/20/1
f 95/77/1 159/38/1 91/38/1
f 89/79/1 167/58/1 99/58/1
f 97/85/1 160/50/1 92/50/1
f 93/80/1 168/22/1 100/22/1
f 99/58/1 161/80/1 93/80/1
f 164/18/3 173/78/3 156/78/3
f 158/82/3 187/71/3 170/71/3
f 154/83/3 180/77/3 163/77/3
f 166/20/3 174/79/3 157/79/3
f 159/38/3 181/18/3 164/18/3
f 168/22/3 175/82/3 158/82/3
f 156/78/3 182/85/3 165/85/3
f 169/24/3 172/84/3 155/84/3
f 160/50/3 183/20/3 166/20/3
f 163/77/3 176/38/3 159/38/3
f 157/79/3 184/58/3 167/58/3
f 165/85/3 177/50/3 160/50/3
f 161/80/3 185/22/3 168/22/3
f 167/58/3 178/80/3 161/80/3
f 162/81/3 186/24/3 169/24/3
f 170/71/3 179/81/3 162/81/3
f 63/1/1 21/5/1 20/2/1
f 64/4/1 22/21/1 21/5/1
f 73/6/1 24/10/1 23/7/1
f 74/9/1 25/23/1 24/10/1
f 52/11/1 17/15/1 7/12/1
f 53/14/1 18/17/1 17/15/1
f 54/16/1 19/19/1 18/17/1
f 51/18/1 11/78/1 19/19/1
f 61/20/1 12/79/1 22/21/1
f 71/22/1 13/82/1 25/23/1
f 76/24/1 4/84/1 14/25/1
f 78/26/1 14/25/1 15/27/1
f 79/28/1 15/27/1 16/29/1
f 77/31/1 80/30/1 16/29/1
f 72/8/1 23/7/1 5/33/1
f 62/3/1 20/2/1 6/35/1
f 50/37/1 47/77/1 27/38/1
f 50/37/1 30/39/1 29/40/1
f 49/41/1 29/40/1 28/42/1
f 48/43/1 28/42/1 26/44/1
f 58/46/1 33/54/1 31/47/1
f 60/49/1 57/85/1 32/50/1
f 60/49/1 35/51/1 34/52/1
f 59/53/1 34/52/1 33/54/1
f 68/55/1 38/63/1 36/56/1
f 67/58/1 37/80/1 40/59/1
f 70/60/1 40/59/1 39/61/1
f 69/62/1 39/61/1 38/63/1
f 84/64/1 45/68/1 41/65/1
f 83/67/1 44/70/1 45/68/1
f 82/69/1 43/72/1 44/70/1
f 85/71/1 42/81/1 43/72/1
f 8/73/1 48/43/1 46/45/1
f 9/75/1 49/41/1 48/43/1
f 10/76/1 50/37/1 49/41/1
f 10/76/1 2/83/1 47/77/1
f 27/38/1 51/18/1 54/16/1
f 29/40/1 30/39/1 54/16/1
f 29/40/1 53/14/1 52/11/1
f 28/42/1 52/11/1 55/13/1
f 18/17/1 59/53/1 58/46/1
f 19/19/1 60/49/1 59/53/1
f 11/78/1 57/85/1 60/49/1
f 17/15/1 58/46/1 56/48/1
f 33/54/1 62/3/1 65/36/1
f 32/50/1 61/20/1 64/4/1
f 35/51/1 64/4/1 63/1/1
f 34/52/1 63/1/1 62/3/1
f 21/5/1 69/62/1 68/55/1
f 22/21/1 70/60/1 69/62/1
f 12/79/1 67/58/1 70/60/1
f 20/2/1 68/55/1 66/57/1
f 38/63/1 72/8/1 75/34/1
f 37/80/1 71/22/1 74/9/1
f 40/59/1 74/9/1 73/6/1
f 39/61/1 73/6/1 72/8/1
f 45/68/1 80/30/1 77/31/1
f 44/70/1 79/28/1 80/30/1
f 43/72/1 78/26/1 79/28/1
f 42/81/1 76/24/1 78/26/1
f 13/82/1 85/71/1 82/69/1
f 25/23/1 82/69/1 83/67/1
f 24/10/1 83/67/1 84/64/1
f 23/7/1 84/64/1 81/66/1
f 51/18/2 96/18/2 88/78/2
f 85/71/2 102/71/2 94/81/2
f 61/20/2 98/20/2 89/79/2
f 12/79/2 89/79/2 99/58/2
f 13/82/2 90/82/2 102/71/2
f 37/80/2 93/80/2 100/22/2
f 71/22/2 100/22/2 90/82/2
f 2/83/2 86/83/2 95/77/2
f 76/24/2 101/24/2 87/84/2
f 27/38/2 91/38/2 96/18/2
f 47/77/2 95/77/2 91/38/2
f 42/81/2 94/81/2 101/24/2
f 57/85/2 97/85/2 92/50/2
f 11/78/2 88/78/2 97/85/2
f 32/50/2 92/50/2 98/20/2
f 67/58/2 99/58/2 93/80/2
f 75/34/3 117/34/3 110/56/3
f 5/33/3 105/33/3 117/34/3
f 81/66/3 119/66/3 105/33/3
f 7/12/3 107/12/3 113/13/3
f 77/31/3 118/31/3 111/65/3
f 36/56/3 110/56/3 116/57/3
f 66/57/3 116/57/3 106/35/3
f 56/48/3 114/48/3 107/12/3
f 26/44/3 108/44/3 112/45/3
f 46/45/3 112/45/3 103/74/3
f 55/13/3 113/13/3 108/44/3
f 6/35/3 106/35/3 115/36/3
f 65/36/3 115/36/3 109/47/3
f 3/32/3 104/32/3 118/31/3
f 31/47/3 109/47/3 114/48/3
f 41/65/3 111/65/3 119/66/3
f 112/45/1 129/45/1 120/74/1
f 106/35/1 123/35/1 132/36/1
f 113/13/1 130/13/1 125/44/1
f 110/56/1 127/56/1 133/57/1
f 115/36/1 132/36/1 126/47/1
f 105/33/1 122/33/1 134/34/1
f 117/34/1 134/34/1 127/56/1
f 104/32/1 121/32/1 135/31/1
f 118/31/1 135/31/1 128/65/1
f 119/66/1 136/66/1 122/33/1
f 111/65/1 128/65/1 136/66/1
f 108/44/1 125/44/1 129/45/1
f 106/35/1 116/57/1 133/57/1
f 107/12/1 124/12/1 130/13/1
f 114/48/1 131/48/1 124/12/1
f 109/47/1 126/47/1 131/48/1
f 135/31/2 152/31/2 145/65/2
f 136/66/2 153/66/2 139/33/2
f 128/65/2 145/65/2 153/66/2
f 125/44/2 142/44/2 146/45/2
f 133/57/2 150/57/2 140/35/2
f 124/12/2 141/12/2 147/13/2
f 131/48/2 148/48/2 141/12/2
f 126/47/2 143/47/2 148/48/2
f 129/45/2 146/45/2 137/74/2
f 123/35/2 140/35/2 149/36/2
f 130/13/2 147/13/2 142/44/2
f 127/56/2 144/56/2 150/57/2
f 132/36/2 149/36/2 143/47/2
f 122/33/2 139/33/2 151/34/2
f 134/34/2 151/34/2 144/56/2
f 121/32/2 138/32/2 152/31/2
f 94/81/1 162/81/1 169/24/1
f 102/71/1 170/71/1 162/81/1
f 96/18/1 164/18/1 156/78/1
f 90/82/1 158/82/1 170/71/1
f 86/83/1 154/83/1 163/77/1
f 98/20/1 166/20/1 157/79/1
f 91/38/1 159/38/1 164/18/1
f 100/22/1 168/22/1 158/82/1
f 88/78/1 156/78/1 165/85/1
f 101/24/1 169/24/1 155/84/1
f 92/50/1 160/50/1 166/20/1
f 95/77/1 163/77/1 159/38/1
f 89/79/1 157/79/1 167/58/1
f 97/85/1 165/85/1 160/50/1
f 93/80/1 161/80/1 168/22/1
f 99/58/1 167/58/1 161/80/1
f 164/18/3 181/18/3 173/78/3
f 158/82/3 175/82/3 187/71/3
f 154/83/3 171/83/3 180/77/3
f 166/20/3 183/20/3 174/79/3
f 159/38/3 176/38/3 181/18/3
f 168/22/3 185/22/3 175/82/3
f 156/78/3 173/78/3 182/85/3
f 169/24/3 186/24/3 172/84/3
f 160/50/3 177/50/3 183/20/3
f 163/77/3 180/77/3 176/38/3
f 157/79/3 174/79/3 184/58/3
f 165/85/3 182/85/3 177/50/3
f 161/80/3 178/80/3 185/22/3
f 167/58/3 184/58/3 178/80/3
f 162/81/3 179/81/3 186/24/3
f 170/71/3 187/71/3 179/81/3
